<svg width="41" height="40" viewBox="0 0 41 40" fill="none" xmlns="http://www.w3.org/2000/svg">
<path d="M12.7188 27.2969C11.125 27.3281 9.71875 27.3438 8.5 27.3438C7.3125 27.3438 6.35938 27.3438 5.64062 27.3438C3.76562 27.3438 2.35938 27.2656 1.42188 27.1094C0.515625 26.9219 0.0625 26.5625 0.0625 26.0312C0.0625 25.75 0.140625 25.1719 0.296875 24.2969C0.484375 23.3906 0.6875 22.3906 0.90625 21.2969C1.15625 20.1719 1.39062 19.0469 1.60938 17.9219C1.85938 16.7656 2.0625 15.7969 2.21875 15.0156C2.28125 14.6406 2.51562 14.2969 2.92188 13.9844C3.35938 13.6719 3.92188 13.5 4.60938 13.4688L14.0312 13.3281L14.125 12.3438C14.2812 10.2188 14.3906 8.39062 14.4531 6.85938C14.5156 5.32812 14.6094 4.07812 14.7344 3.10938C14.8906 2.14062 15.125 1.4375 15.4375 1C15.75 0.53125 16.2344 0.296875 16.8906 0.296875C16.9531 0.296875 17.0156 0.3125 17.0781 0.34375C17.1719 0.34375 17.2656 0.34375 17.3594 0.34375C17.5469 0.34375 17.8281 0.34375 18.2031 0.34375C18.6094 0.3125 19.0625 0.296875 19.5625 0.296875C20.0625 0.265625 20.6094 0.25 21.2031 0.25C21.7969 0.21875 22.375 0.203125 22.9375 0.203125L27.3906 0.0625C27.8281 0.1875 28.1562 0.359375 28.375 0.578125C28.5938 0.765625 28.7031 1.14062 28.7031 1.70312C28.7031 1.76562 28.7031 1.8125 28.7031 1.84375C28.7031 1.875 28.6875 1.98438 28.6562 2.17188C28.6562 2.35938 28.6406 2.65625 28.6094 3.0625C28.5781 3.46875 28.5312 4.07812 28.4688 4.89062C28.4062 5.70312 28.3125 6.78125 28.1875 8.125C28.0938 9.4375 27.9688 11.0938 27.8125 13.0938L28.6094 13.0469C29.7656 13.0156 30.8906 12.9844 31.9844 12.9531C33.1094 12.9219 34.125 12.9062 35.0312 12.9062C35.9688 12.875 36.7656 12.8594 37.4219 12.8594C38.1094 12.8281 38.5938 12.8125 38.875 12.8125C39.125 12.8125 39.4062 12.9062 39.7188 13.0938C40.0312 13.2812 40.1875 13.6406 40.1875 14.1719C40.1562 14.2344 40.0781 14.8438 39.9531 16C39.8281 17.1562 39.6562 18.7344 39.4375 20.7344L38.9219 25.2812C38.7344 25.7188 38.5469 26.0469 38.3594 26.2656C38.2031 26.4531 37.9531 26.5938 37.6094 26.6875C37.2656 26.7812 36.7656 26.8438 36.1094 26.875C35.4844 26.875 34.625 26.8906 33.5312 26.9219L26.6875 27.0625L26.0781 33.9062C25.9844 35.0938 25.8594 36.0781 25.7031 36.8594C25.5781 37.6094 25.4219 38.2031 25.2344 38.6406C25.0469 39.0781 24.8125 39.3906 24.5312 39.5781C24.2812 39.7344 23.9844 39.8125 23.6406 39.8125C23.1094 39.8125 22.3906 39.8125 21.4844 39.8125C20.5781 39.7812 19.6094 39.75 18.5781 39.7188C17.5781 39.6875 16.5781 39.6719 15.5781 39.6719C14.5781 39.6406 13.7344 39.625 13.0469 39.625C12.6719 39.5625 12.3594 39.375 12.1094 39.0625C11.8906 38.75 11.7812 38.2812 11.7812 37.6562V37.375L12.7188 27.2969Z" fill="#FE8C68"/>
</svg>
