<svg width="423" height="51" viewBox="0 0 423 51" fill="none" xmlns="http://www.w3.org/2000/svg">
<path d="M8.8125 32.5312C7.75 32.5521 6.8125 32.5625 6 32.5625C5.20833 32.5625 4.57292 32.5625 4.09375 32.5625C2.84375 32.5625 1.90625 32.5104 1.28125 32.4062C0.677083 32.2812 0.375 32.0417 0.375 31.6875C0.375 31.5 0.427083 31.1146 0.53125 30.5312C0.65625 29.9271 0.791667 29.2604 0.9375 28.5312C1.10417 27.7812 1.26042 27.0312 1.40625 26.2812C1.57292 25.5104 1.70833 24.8646 1.8125 24.3438C1.85417 24.0938 2.01042 23.8646 2.28125 23.6562C2.57292 23.4479 2.94792 23.3333 3.40625 23.3125L9.6875 23.2188L9.75 22.5625C9.85417 21.1458 9.92708 19.9271 9.96875 18.9062C10.0104 17.8854 10.0729 17.0521 10.1562 16.4062C10.2604 15.7604 10.4167 15.2917 10.625 15C10.8333 14.6875 11.1562 14.5312 11.5938 14.5312C11.6354 14.5312 11.6771 14.5417 11.7188 14.5625C11.7812 14.5625 11.8438 14.5625 11.9062 14.5625C12.0312 14.5625 12.2188 14.5625 12.4688 14.5625C12.7396 14.5417 13.0417 14.5312 13.375 14.5312C13.7083 14.5104 14.0729 14.5 14.4688 14.5C14.8646 14.4792 15.25 14.4688 15.625 14.4688L18.5938 14.375C18.8854 14.4583 19.1042 14.5729 19.25 14.7188C19.3958 14.8438 19.4688 15.0938 19.4688 15.4688C19.4688 15.5104 19.4688 15.5417 19.4688 15.5625C19.4688 15.5833 19.4583 15.6562 19.4375 15.7812C19.4375 15.9062 19.4271 16.1042 19.4062 16.375C19.3854 16.6458 19.3542 17.0521 19.3125 17.5938C19.2708 18.1354 19.2083 18.8542 19.125 19.75C19.0625 20.625 18.9792 21.7292 18.875 23.0625L19.4062 23.0312C20.1771 23.0104 20.9271 22.9896 21.6562 22.9688C22.4062 22.9479 23.0833 22.9375 23.6875 22.9375C24.3125 22.9167 24.8438 22.9062 25.2812 22.9062C25.7396 22.8854 26.0625 22.875 26.25 22.875C26.4167 22.875 26.6042 22.9375 26.8125 23.0625C27.0208 23.1875 27.125 23.4271 27.125 23.7812C27.1042 23.8229 27.0521 24.2292 26.9688 25C26.8854 25.7708 26.7708 26.8229 26.625 28.1562L26.2812 31.1875C26.1562 31.4792 26.0312 31.6979 25.9062 31.8438C25.8021 31.9688 25.6354 32.0625 25.4062 32.125C25.1771 32.1875 24.8438 32.2292 24.4062 32.25C23.9896 32.25 23.4167 32.2604 22.6875 32.2812L18.125 32.375L17.7188 36.9375C17.6562 37.7292 17.5729 38.3854 17.4688 38.9062C17.3854 39.4062 17.2812 39.8021 17.1562 40.0938C17.0312 40.3854 16.875 40.5938 16.6875 40.7188C16.5208 40.8229 16.3229 40.875 16.0938 40.875C15.7396 40.875 15.2604 40.875 14.6562 40.875C14.0521 40.8542 13.4062 40.8333 12.7188 40.8125C12.0521 40.7917 11.3854 40.7812 10.7188 40.7812C10.0521 40.7604 9.48958 40.75 9.03125 40.75C8.78125 40.7083 8.57292 40.5833 8.40625 40.375C8.26042 40.1667 8.1875 39.8542 8.1875 39.4375V39.25L8.8125 32.5312ZM218.469 28.8125C218.469 26.4167 218.74 24.125 219.281 21.9375C219.844 19.7292 220.635 17.6771 221.656 15.7812C222.677 13.8646 223.906 12.1354 225.344 10.5938C226.802 9.03125 228.427 7.69792 230.219 6.59375C232.01 5.46875 233.948 4.60417 236.031 4C238.135 3.39583 240.344 3.09375 242.656 3.09375C244.49 3.09375 246.094 3.21875 247.469 3.46875C248.865 3.69792 250.073 4 251.094 4.375C252.135 4.72917 253 5.125 253.688 5.5625C254.396 6 254.979 6.41667 255.438 6.8125C255.417 6.8125 255.406 6.88542 255.406 7.03125C255.406 7.34375 255.427 7.91667 255.469 8.75C255.531 9.58333 255.594 10.5104 255.656 11.5312C255.74 12.5521 255.802 13.5938 255.844 14.6562C255.906 15.6979 255.938 16.6042 255.938 17.375C255.938 17.5 255.896 17.6458 255.812 17.8125C255.729 17.9583 255.521 18.0312 255.188 18.0312C255 18.0312 254.771 18 254.5 17.9375C254.062 17.8125 253.51 17.5312 252.844 17.0938C252.177 16.6354 251.396 16.1667 250.5 15.6875C249.625 15.1875 248.635 14.75 247.531 14.375C246.448 13.9792 245.26 13.7812 243.969 13.7812C242.26 13.7812 240.708 14.1458 239.312 14.875C237.917 15.5833 236.729 16.5833 235.75 17.875C234.771 19.1458 234.01 20.6667 233.469 22.4375C232.927 24.1875 232.656 26.0938 232.656 28.1562C232.656 29.9688 232.823 31.6667 233.156 33.25C233.49 34.8333 233.99 36.2083 234.656 37.375C235.344 38.5208 236.188 39.4271 237.188 40.0938C238.188 40.7604 239.365 41.0938 240.719 41.0938C242.031 41.0938 243.521 40.8125 245.188 40.25L245.906 35.8438H239.938C240.396 33.3229 240.792 31.3438 241.125 29.9062C241.458 28.4688 241.771 27.3854 242.062 26.6562C242.354 25.9271 242.656 25.4688 242.969 25.2812C243.281 25.0938 243.646 25 244.062 25H260.5C260.979 25 261.323 25.0312 261.531 25.0938C261.76 25.1562 261.875 25.375 261.875 25.75C261.875 25.9375 261.854 26.1667 261.812 26.4375C261.771 26.6875 261.719 27 261.656 27.375L260.094 32.625C259.906 33.2917 259.75 33.8125 259.625 34.1875C259.5 34.5417 259.344 34.8125 259.156 35C258.969 35.1667 258.708 35.2708 258.375 35.3125C258.062 35.3333 257.604 35.3438 257 35.3438C256.667 35.3438 256.469 35.4792 256.406 35.75C256.344 36.0208 256.292 36.3021 256.25 36.5938C256.125 37.5104 256 38.4271 255.875 39.3438C255.75 40.2396 255.625 41.0833 255.5 41.875C255.396 42.6458 255.281 43.3333 255.156 43.9375C255.031 44.5208 254.906 44.9479 254.781 45.2188C253.365 46.1146 252.073 46.9062 250.906 47.5938C249.76 48.2604 248.615 48.8125 247.469 49.25C246.323 49.7083 245.115 50.0521 243.844 50.2812C242.573 50.5104 241.115 50.625 239.469 50.625C236.531 50.625 233.781 50.0938 231.219 49.0312C228.656 47.9688 226.427 46.4792 224.531 44.5625C222.656 42.625 221.177 40.3229 220.094 37.6562C219.01 34.9896 218.469 32.0417 218.469 28.8125ZM295.969 42.7188C295.948 42.8021 295.938 42.8854 295.938 42.9688C295.938 43.0312 295.938 43.0938 295.938 43.1562C295.938 43.6771 296.021 44.1146 296.188 44.4688C296.354 44.8021 296.531 45.0833 296.719 45.3125C296.927 45.5208 297.115 45.6979 297.281 45.8438C297.448 45.9688 297.531 46.0833 297.531 46.1875C297.531 46.4792 297.219 46.75 296.594 47L288.188 50.5938C288.167 50.6146 288.094 50.625 287.969 50.625C287.802 50.625 287.635 50.4792 287.469 50.1875C287.302 49.8958 287.135 49.5208 286.969 49.0625C286.823 48.625 286.677 48.1562 286.531 47.6562C286.406 47.1354 286.292 46.6562 286.188 46.2188C284.875 47.7396 283.458 48.8542 281.938 49.5625C280.417 50.2708 278.906 50.625 277.406 50.625C275.656 50.625 273.948 50.2396 272.281 49.4688C270.615 48.6979 269.135 47.6042 267.844 46.1875C266.552 44.75 265.51 43.0208 264.719 41C263.948 38.9792 263.562 36.7083 263.562 34.1875C263.562 31.2083 263.99 28.4896 264.844 26.0312C265.719 23.5729 266.896 21.4583 268.375 19.6875C269.854 17.9167 271.573 16.5521 273.531 15.5938C275.51 14.6146 277.604 14.125 279.812 14.125C281.375 14.125 282.854 14.4479 284.25 15.0938C285.646 15.7188 286.969 16.5312 288.219 17.5312C288.344 16.9062 288.417 16.4062 288.438 16.0312C288.458 15.6562 288.5 15.3646 288.562 15.1562C288.646 14.9479 288.792 14.8125 289 14.75C289.208 14.6667 289.552 14.6042 290.031 14.5625C291.531 14.3542 293.021 14.1667 294.5 14C296 13.8125 297.562 13.6771 299.188 13.5938L295.969 42.7188ZM286.625 30.9375C286.833 29.75 286.969 28.6354 287.031 27.5938C287.115 26.5312 287.177 25.5625 287.219 24.6875C286.885 24.4375 286.521 24.1771 286.125 23.9062C285.75 23.6354 285.333 23.3854 284.875 23.1562C284.438 22.9062 283.969 22.7083 283.469 22.5625C282.99 22.4167 282.479 22.3438 281.938 22.3438C280.812 22.3438 279.865 22.7083 279.094 23.4375C278.344 24.1667 277.729 25.0625 277.25 26.125C276.792 27.1875 276.458 28.3125 276.25 29.5C276.062 30.6875 275.969 31.7396 275.969 32.6562C275.969 35.9479 276.396 38.3646 277.25 39.9062C278.125 41.4271 279.333 42.1875 280.875 42.1875C281.5 42.1875 282.198 42.0104 282.969 41.6562C283.74 41.3021 284.521 40.8125 285.312 40.1875L286.625 30.9375ZM348.531 50.125C348.302 50.1875 348 50.2812 347.625 50.4062C347.25 50.5521 346.885 50.625 346.531 50.625C346.24 50.625 345.979 50.5521 345.75 50.4062C345.542 50.2604 345.438 50.0104 345.438 49.6562V49.4688C345.583 47.9479 345.708 46.7188 345.812 45.7812C345.917 44.8229 346 44.0521 346.062 43.4688C346.125 42.8854 346.177 42.4479 346.219 42.1562C346.26 41.8438 346.302 41.5625 346.344 41.3125C346.385 41.0417 346.417 40.75 346.438 40.4375C346.479 40.125 346.531 39.6875 346.594 39.125C346.656 38.5417 346.729 37.7812 346.812 36.8438C346.917 35.8854 347.042 34.6354 347.188 33.0938C347.271 32.2604 347.354 31.4375 347.438 30.625C347.542 29.7917 347.594 29.0312 347.594 28.3438C347.594 27.4688 347.542 26.6771 347.438 25.9688C347.354 25.2396 347.188 24.625 346.938 24.125C346.708 23.6042 346.385 23.1979 345.969 22.9062C345.552 22.6146 345.021 22.4688 344.375 22.4688C343.979 22.4688 343.458 22.5521 342.812 22.7188C342.188 22.8854 341.552 23.1875 340.906 23.625C340.26 24.0417 339.677 24.6042 339.156 25.3125C338.635 26 338.302 26.875 338.156 27.9375V28.0625C337.906 30.4375 337.677 32.5 337.469 34.25C337.281 35.9792 337.115 37.4688 336.969 38.7188C336.823 39.9688 336.698 41.0104 336.594 41.8438C336.51 42.6771 336.438 43.3854 336.375 43.9688C336.312 44.5312 336.26 45 336.219 45.375C336.198 45.75 336.188 46.1042 336.188 46.4375C336.188 46.6042 336.188 46.75 336.188 46.875C336.208 46.9792 336.219 47.0729 336.219 47.1562C336.219 47.3229 336.135 47.4688 335.969 47.5938C335.823 47.6979 335.479 47.8333 334.938 48L327.594 50.125C327.365 50.1875 327.062 50.2812 326.688 50.4062C326.312 50.5521 325.948 50.625 325.594 50.625C325.302 50.625 325.042 50.5521 324.812 50.4062C324.604 50.2604 324.5 50.0104 324.5 49.6562V49.4688C324.646 47.9479 324.76 46.7188 324.844 45.7812C324.948 44.8229 325.031 44.0521 325.094 43.4688C325.177 42.8854 325.24 42.4479 325.281 42.1562C325.323 41.8438 325.354 41.5625 325.375 41.3125C325.417 41.0417 325.458 40.75 325.5 40.4375C325.542 40.125 325.583 39.6875 325.625 39.125C325.688 38.5417 325.76 37.7812 325.844 36.8438C325.948 35.8854 326.073 34.6354 326.219 33.0938C326.302 32.2604 326.385 31.4375 326.469 30.625C326.573 29.7917 326.625 29.0312 326.625 28.3438C326.625 27.4688 326.583 26.6771 326.5 25.9688C326.417 25.2396 326.26 24.625 326.031 24.125C325.823 23.6042 325.531 23.1979 325.156 22.9062C324.781 22.6146 324.302 22.4688 323.719 22.4688C323.302 22.4688 322.729 22.5729 322 22.7812C321.292 22.9896 320.573 23.3333 319.844 23.8125C319.135 24.2917 318.5 24.9271 317.938 25.7188C317.396 26.4896 317.083 27.4479 317 28.5938C316.833 30.1354 316.698 31.4062 316.594 32.4062C316.49 33.3854 316.406 34.1979 316.344 34.8438C316.281 35.4688 316.229 35.9792 316.188 36.375C316.167 36.75 316.146 37.1042 316.125 37.4375C316.104 37.5208 316.073 37.7604 316.031 38.1562C315.99 38.5312 315.938 38.9896 315.875 39.5312C315.833 40.0521 315.781 40.625 315.719 41.25C315.677 41.8542 315.635 42.4271 315.594 42.9688C315.552 43.4896 315.51 43.9479 315.469 44.3438C315.448 44.7188 315.438 44.9479 315.438 45.0312V45.5938C315.438 45.8021 315.427 45.9792 315.406 46.125C315.385 46.2708 315.323 46.4062 315.219 46.5312C315.115 46.6562 314.958 46.7708 314.75 46.875C314.562 46.9792 314.292 47.0938 313.938 47.2188L305.75 50.125C305.521 50.2083 305.219 50.3125 304.844 50.4375C304.469 50.5625 304.104 50.625 303.75 50.625C303.458 50.625 303.198 50.5521 302.969 50.4062C302.76 50.2604 302.656 50.0104 302.656 49.6562L305.469 17.7812C305.531 17.0938 305.604 16.625 305.688 16.375C305.792 16.1042 306.031 15.9271 306.406 15.8438C308.302 15.4688 310.24 15.0938 312.219 14.7188C314.198 14.3229 316.135 13.8229 318.031 13.2188C318.198 13.2188 318.292 13.25 318.312 13.3125C318.354 13.3542 318.375 13.4271 318.375 13.5312L317.969 18.0938C318.74 17.6979 319.604 17.2708 320.562 16.8125C321.521 16.3333 322.521 15.8958 323.562 15.5C324.625 15.1042 325.698 14.7812 326.781 14.5312C327.885 14.2604 328.958 14.125 330 14.125C331.438 14.125 332.76 14.4583 333.969 15.125C335.198 15.7708 336.208 16.8542 337 18.375C337.938 17.7708 338.927 17.2083 339.969 16.6875C341.031 16.1667 342.104 15.7188 343.188 15.3438C344.292 14.9688 345.396 14.6771 346.5 14.4688C347.604 14.2604 348.677 14.1562 349.719 14.1562C351.031 14.1562 352.271 14.3438 353.438 14.7188C354.604 15.0938 355.615 15.7083 356.469 16.5625C357.344 17.4167 358.031 18.5312 358.531 19.9062C359.031 21.2604 359.281 22.9167 359.281 24.875C359.281 25.375 359.271 25.8958 359.25 26.4375C359.229 26.9583 359.188 27.5 359.125 28.0625L357.688 41.4375C357.583 42.3125 357.521 43.125 357.5 43.875C357.479 44.6042 357.469 45.4583 357.469 46.4375C357.469 46.6042 357.469 46.75 357.469 46.875C357.49 46.9792 357.5 47.0729 357.5 47.1562C357.5 47.3438 357.417 47.4896 357.25 47.5938C357.104 47.6979 356.76 47.8333 356.219 48L348.531 50.125ZM382.625 14.125C384.604 14.125 386.396 14.5 388 15.25C389.625 15.9792 391.01 16.9375 392.156 18.125C393.323 19.2917 394.219 20.6042 394.844 22.0625C395.469 23.5208 395.781 24.9792 395.781 26.4375C395.781 27.7292 395.385 29.0312 394.594 30.3438C393.802 31.6354 392.688 32.8021 391.25 33.8438C389.833 34.8854 388.125 35.7292 386.125 36.375C384.125 37.0208 381.927 37.3438 379.531 37.3438C378.281 37.3438 376.969 37.2188 375.594 36.9688C375.677 37.8646 375.938 38.6354 376.375 39.2812C376.812 39.9271 377.365 40.4583 378.031 40.875C378.698 41.2917 379.448 41.6042 380.281 41.8125C381.135 42 382.01 42.0938 382.906 42.0938C383.906 42.0938 384.865 42.0104 385.781 41.8438C386.719 41.6562 387.615 41.4167 388.469 41.125C389.323 40.8333 390.146 40.5104 390.938 40.1562C391.729 39.8021 392.479 39.4479 393.188 39.0938C393.375 39.0521 393.531 39.0208 393.656 39C393.802 38.9583 393.938 38.9375 394.062 38.9375C394.062 38.9375 394.052 39.1042 394.031 39.4375C394.031 39.7708 394.031 40.2396 394.031 40.8438C394.031 41.4479 394.021 42.1771 394 43.0312C394 43.8854 393.99 44.8333 393.969 45.875C394.031 45.9792 394.073 46.0833 394.094 46.1875C394.115 46.2917 394.125 46.375 394.125 46.4375C394.125 46.6875 393.896 46.9583 393.438 47.25C392.979 47.5417 392.375 47.8438 391.625 48.1562C390.896 48.4688 390.052 48.7708 389.094 49.0625C388.156 49.3542 387.198 49.6146 386.219 49.8438C385.24 50.0938 384.292 50.2812 383.375 50.4062C382.458 50.5521 381.656 50.625 380.969 50.625C378.719 50.625 376.531 50.2292 374.406 49.4375C372.302 48.6667 370.427 47.5521 368.781 46.0938C367.156 44.6354 365.854 42.8646 364.875 40.7812C363.896 38.6979 363.406 36.3542 363.406 33.75C363.406 31.0208 363.875 28.4688 364.812 26.0938C365.75 23.6979 367.062 21.6146 368.75 19.8438C370.458 18.0729 372.49 16.6771 374.844 15.6562C377.198 14.6354 379.792 14.125 382.625 14.125ZM382.25 22.4375C381.396 22.4375 380.604 22.625 379.875 23C379.167 23.3542 378.51 23.875 377.906 24.5625C377.323 25.2292 376.812 26.0417 376.375 27C375.938 27.9375 375.583 28.9792 375.312 30.125C377.458 29.75 379.24 29.3542 380.656 28.9375C382.073 28.5208 383.208 28.1042 384.062 27.6875C384.917 27.25 385.521 26.8229 385.875 26.4062C386.229 25.9688 386.406 25.5521 386.406 25.1562C386.406 24.7812 386.26 24.4271 385.969 24.0938C385.698 23.7604 385.354 23.4688 384.938 23.2188C384.521 22.9688 384.062 22.7812 383.562 22.6562C383.083 22.5104 382.646 22.4375 382.25 22.4375ZM399.844 40.375C399.844 40.3542 399.833 40.3438 399.812 40.3438C399.812 40.3229 399.812 40.3021 399.812 40.2812C399.812 40.0104 399.958 39.875 400.25 39.875C400.438 39.875 400.604 39.9479 400.75 40.0938C401.583 40.8854 402.531 41.5312 403.594 42.0312C404.677 42.5312 405.844 42.7812 407.094 42.7812C407.427 42.7812 407.812 42.75 408.25 42.6875C408.688 42.6042 409.104 42.4792 409.5 42.3125C409.896 42.1458 410.219 41.9271 410.469 41.6562C410.74 41.3646 410.875 41.0104 410.875 40.5938C410.875 40.1354 410.76 39.7188 410.531 39.3438C410.302 38.9479 410 38.625 409.625 38.375C409.417 38.2292 409.052 37.9792 408.531 37.625C408.01 37.25 407.448 36.8542 406.844 36.4375C406.26 36.0208 405.698 35.625 405.156 35.25C404.635 34.875 404.271 34.6042 404.062 34.4375C403.125 33.7292 402.375 33.0104 401.812 32.2812C401.271 31.5521 400.854 30.8021 400.562 30.0312C400.271 29.2396 400.083 28.4167 400 27.5625C399.917 26.7083 399.875 25.8021 399.875 24.8438C399.875 23.3854 400.26 22.0104 401.031 20.7188C401.802 19.4271 402.812 18.2917 404.062 17.3125C405.333 16.3333 406.771 15.5625 408.375 15C409.979 14.4167 411.615 14.125 413.281 14.125C414.656 14.125 416.01 14.3333 417.344 14.75C418.677 15.1667 419.917 15.875 421.062 16.875C421.167 18.1875 421.24 19.4792 421.281 20.75C421.323 22.0208 421.385 23.3542 421.469 24.75C421.469 25.0208 421.406 25.2083 421.281 25.3125C421.156 25.3958 421.01 25.4375 420.844 25.4375C420.698 25.4375 420.573 25.3854 420.469 25.2812C419.99 24.8229 419.5 24.375 419 23.9375C418.5 23.4792 417.969 23.0833 417.406 22.75C416.865 22.3958 416.281 22.1146 415.656 21.9062C415.031 21.6771 414.365 21.5625 413.656 21.5625C413.219 21.5625 412.781 21.6042 412.344 21.6875C411.906 21.75 411.51 21.8854 411.156 22.0938C410.802 22.2812 410.51 22.5417 410.281 22.875C410.073 23.2083 409.969 23.6354 409.969 24.1562C409.969 24.7604 410.042 25.2812 410.188 25.7188C410.333 26.1562 410.677 26.5833 411.219 27L417.031 30.9375C418.094 31.6667 418.948 32.3854 419.594 33.0938C420.26 33.7812 420.781 34.4688 421.156 35.1562C421.531 35.8438 421.781 36.5312 421.906 37.2188C422.052 37.8854 422.125 38.5521 422.125 39.2188C422.125 41.0938 421.688 42.75 420.812 44.1875C419.958 45.6042 418.844 46.7917 417.469 47.75C416.094 48.6875 414.531 49.3958 412.781 49.875C411.052 50.375 409.312 50.625 407.562 50.625C406.229 50.625 404.938 50.4792 403.688 50.1875C402.458 49.9167 401.312 49.4896 400.25 48.9062L399.844 40.375Z" fill="#FE8C68"/>
<path d="M59.0312 23.0625C58.9479 23.3542 58.7917 23.7708 58.5625 24.3125C58.3333 24.8333 58.0625 25.4271 57.75 26.0938C57.4583 26.7604 57.1354 27.4792 56.7812 28.25C56.4479 29 56.1146 29.7604 55.7812 30.5312C55.6562 30.8229 55.5417 31.0417 55.4375 31.1875C55.3333 31.3125 55.1667 31.4062 54.9375 31.4688C54.7083 31.5312 54.3854 31.5729 53.9688 31.5938C53.5729 31.5938 53.0104 31.6042 52.2812 31.625L47.9375 31.7188L47.0625 41.2812H63.0938V42.5C63.0521 42.5417 62.875 42.8229 62.5625 43.3438C62.25 43.8438 61.8854 44.4479 61.4688 45.1562C61.0521 45.8646 60.6146 46.5833 60.1562 47.3125C59.6979 48.0208 59.3125 48.5938 59 49.0312C58.7917 49.4062 58.5521 49.6979 58.2812 49.9062C58.0104 50.1354 57.7083 50.3021 57.375 50.4062C57.0625 50.5104 56.7083 50.5729 56.3125 50.5938C55.9375 50.6146 55.5208 50.625 55.0625 50.625C53.1875 50.625 51.2292 50.5833 49.1875 50.5C47.1667 50.4167 45.1458 50.3125 43.125 50.1875C41.1042 50.0625 39.125 49.9167 37.1875 49.75C35.2708 49.6042 33.4896 49.4479 31.8438 49.2812C31.6979 49.2604 31.5625 49.1771 31.4375 49.0312C31.3333 48.8854 31.2812 48.7188 31.2812 48.5312C31.1979 48.5312 31.25 48.3542 31.4375 48C31.6458 47.6458 31.9271 47.1875 32.2812 46.625C32.6354 46.0625 33.0208 45.4271 33.4375 44.7188C33.875 43.9896 34.2917 43.2604 34.6875 42.5312L35.1875 35.5C35.2708 34.3125 35.3333 33.4271 35.375 32.8438C35.4375 32.2604 35.4688 31.9479 35.4688 31.9062C34.2188 31.8854 33.2812 31.8229 32.6562 31.7188C32.0521 31.6146 31.75 31.3854 31.75 31.0312C31.75 30.8646 31.8958 30.5521 32.1875 30.0938C32.5 29.6354 32.875 29.1146 33.3125 28.5312C33.75 27.9271 34.2083 27.3021 34.6875 26.6562C35.1875 26.0104 35.625 25.4167 36 24.875L36.7812 14.25H36.6875C36.2292 14.2708 35.8125 14.2917 35.4375 14.3125C35.0625 14.3125 34.7188 14.3125 34.4062 14.3125C33.4062 14.3125 32.6875 14.2604 32.25 14.1562C31.8333 14.0312 31.625 13.8125 31.625 13.5C31.625 13.3542 31.75 13.0521 32 12.5938C32.25 12.1354 32.5625 11.6146 32.9375 11.0312C33.3125 10.4271 33.7083 9.80208 34.125 9.15625C34.5417 8.48958 34.9167 7.875 35.25 7.3125L37.125 4.125H50.1875L65.5938 3C65.6146 3 65.6667 3.01042 65.75 3.03125C65.8542 3.03125 65.9583 3.0625 66.0625 3.125C66.1667 3.16667 66.2604 3.25 66.3438 3.375C66.4479 3.5 66.5 3.67708 66.5 3.90625L66.0312 5.53125C65.8854 5.98958 65.7083 6.47917 65.5 7C65.2917 7.5 65.0625 8.02083 64.8125 8.5625L63.4375 12.1875C63.2917 12.5417 63.125 12.8125 62.9375 13C62.75 13.1875 62.3542 13.2917 61.75 13.3125C60.1667 13.3542 58.3958 13.4271 56.4375 13.5312C54.5 13.6146 52.2708 13.6979 49.75 13.7812C49.6667 14.0729 49.625 14.3125 49.625 14.5C49.625 14.6667 49.6042 15 49.5625 15.5L49.4062 16.9375C49.3646 17.6042 49.3021 18.3229 49.2188 19.0938C49.1354 19.8646 49.0312 20.8125 48.9062 21.9375C49.9688 21.8958 51 21.8542 52 21.8125C53.0208 21.7708 53.9479 21.7396 54.7812 21.7188C55.6146 21.6771 56.3333 21.6458 56.9375 21.625C57.5625 21.6042 58 21.5938 58.25 21.5938C58.4167 21.5938 58.6042 21.6562 58.8125 21.7812C59.0208 21.9062 59.125 22.1458 59.125 22.5C59.125 22.6667 59.0938 22.8542 59.0312 23.0625ZM89.6562 31.2188C89.7188 30.5521 89.7812 29.8542 89.8438 29.125C89.9271 28.3958 90.0208 27.6354 90.125 26.8438C89.6458 25.5938 88.9688 24.5833 88.0938 23.8125C87.2188 23.0208 86.125 22.625 84.8125 22.625C83.5208 22.625 82.4271 23 81.5312 23.75C80.6354 24.4792 79.9167 25.3854 79.375 26.4688C78.8333 27.5521 78.4375 28.6979 78.1875 29.9062C77.9583 31.0938 77.8438 32.1458 77.8438 33.0625C77.8438 34.1875 77.9062 35.3021 78.0312 36.4062C78.1771 37.5104 78.3958 38.5104 78.6875 39.4062C79 40.3021 79.4062 41.0312 79.9062 41.5938C80.4062 42.1354 81.0312 42.4062 81.7812 42.4062C83.6146 42.3438 85.1042 41.9271 86.25 41.1562C87.3958 40.3854 88.3125 39.4479 89 38.3438L89.6562 31.2188ZM100.562 45.8438C100.562 45.8854 100.552 45.9375 100.531 46C100.531 46.0417 100.531 46.0833 100.531 46.125C100.531 46.2292 100.531 46.3125 100.531 46.375C100.552 46.4375 100.562 46.5 100.562 46.5625C100.562 46.75 100.49 46.9062 100.344 47.0312C100.219 47.1354 99.875 47.2604 99.3125 47.4062L90.9375 50.125C90.7083 50.2083 90.4062 50.3125 90.0312 50.4375C89.6562 50.5625 89.2917 50.625 88.9375 50.625C88.6458 50.625 88.3854 50.5521 88.1562 50.4062C87.9479 50.2604 87.8438 49.9896 87.8438 49.5938C87.8438 49.2188 87.8438 48.9167 87.8438 48.6875C87.8646 48.4583 87.875 48.25 87.875 48.0625C87.8958 47.8542 87.9167 47.6354 87.9375 47.4062C87.9792 47.1771 88.0208 46.875 88.0625 46.5C86.5 47.75 84.8854 48.75 83.2188 49.5C81.5729 50.25 79.8333 50.625 78 50.625C76 50.625 74.2188 50.1458 72.6562 49.1875C71.1146 48.25 69.8125 46.9896 68.75 45.4062C67.6875 43.8021 66.875 41.9792 66.3125 39.9375C65.7708 37.875 65.5 35.7292 65.5 33.5C65.5 30.6042 65.9688 27.9688 66.9062 25.5938C67.8646 23.1979 69.1562 21.1562 70.7812 19.4688C72.4062 17.7604 74.3021 16.4479 76.4688 15.5312C78.6354 14.5938 80.9375 14.125 83.375 14.125C84.6875 14.125 85.9375 14.4688 87.125 15.1562C88.3333 15.8438 89.4688 16.7292 90.5312 17.8125C90.5938 16.7917 90.6667 15.6875 90.75 14.5C90.8333 13.2917 90.9167 12.0729 91 10.8438C91.0833 9.59375 91.1667 8.36458 91.25 7.15625C91.3333 5.94792 91.4062 4.84375 91.4688 3.84375C91.4688 3.65625 91.5312 3.51042 91.6562 3.40625C91.8021 3.28125 92.1562 3.14583 92.7188 3L101.5 0.90625C101.729 0.864583 102.031 0.770833 102.406 0.625C102.781 0.479167 103.146 0.40625 103.5 0.40625C103.771 0.40625 104.021 0.46875 104.25 0.59375C104.5 0.71875 104.625 0.958333 104.625 1.3125C104.625 1.35417 104.615 1.44792 104.594 1.59375C104.594 1.71875 104.594 1.80208 104.594 1.84375L100.562 45.8438ZM140.594 45.125C140.531 45.8125 140.448 46.2917 140.344 46.5625C140.24 46.8125 140.01 46.9792 139.656 47.0625C137.885 47.5625 136.031 48.0729 134.094 48.5938C132.177 49.0938 130.312 49.7604 128.5 50.5938C128.438 50.6146 128.344 50.625 128.219 50.625C128.052 50.625 127.948 50.5833 127.906 50.5C127.885 50.4167 127.875 50.3229 127.875 50.2188C127.875 50.1771 127.875 50.1042 127.875 50C127.896 49.8958 127.927 49.6979 127.969 49.4062C128.01 49.1354 128.062 48.75 128.125 48.25C128.208 47.75 128.312 47.0833 128.438 46.25C126.104 47.7708 124.031 48.875 122.219 49.5625C120.427 50.2708 118.833 50.625 117.438 50.625C113.958 50.625 111.417 49.7917 109.812 48.125C108.229 46.4375 107.438 43.9271 107.438 40.5938C107.438 39.9896 107.448 39.375 107.469 38.75C107.49 38.1042 107.552 37.4479 107.656 36.7812C107.885 34.3229 108.083 32.2188 108.25 30.4688C108.417 28.6979 108.552 27.1979 108.656 25.9688C108.76 24.7396 108.844 23.7396 108.906 22.9688C108.99 22.1771 109.052 21.5208 109.094 21C109.156 20.4792 109.198 20.0521 109.219 19.7188C109.26 19.3646 109.302 19.0208 109.344 18.6875C109.427 18.0208 109.5 17.5521 109.562 17.2812C109.646 17.0104 109.885 16.8333 110.281 16.75C111.26 16.5625 112.188 16.3958 113.062 16.25C113.958 16.0833 114.833 15.9167 115.688 15.75C116.562 15.5625 117.448 15.3646 118.344 15.1562C119.24 14.9479 120.188 14.6979 121.188 14.4062C121.229 14.4062 121.271 14.4062 121.312 14.4062C121.354 14.3854 121.396 14.375 121.438 14.375C121.688 14.375 121.812 14.4583 121.812 14.625V14.6875C121.729 15.3958 121.656 16.0625 121.594 16.6875C121.531 17.3125 121.469 17.9583 121.406 18.625C121.344 19.2708 121.271 19.9688 121.188 20.7188C121.125 21.4688 121.042 22.3438 120.938 23.3438C120.833 24.3229 120.708 25.4583 120.562 26.75C120.417 28.0417 120.24 29.5417 120.031 31.25C119.906 32.5 119.781 33.75 119.656 35C119.531 36.2292 119.469 37.375 119.469 38.4375C119.469 39.0208 119.51 39.5625 119.594 40.0625C119.677 40.5417 119.823 40.9583 120.031 41.3125C120.26 41.6458 120.552 41.9062 120.906 42.0938C121.26 42.2812 121.719 42.375 122.281 42.375C122.719 42.375 123.312 42.2812 124.062 42.0938C124.812 41.8854 125.562 41.5417 126.312 41.0625C127.062 40.5625 127.719 39.9167 128.281 39.125C128.865 38.3125 129.198 37.2917 129.281 36.0625C129.427 34 129.552 32.2812 129.656 30.9062C129.781 29.5104 129.885 28.3438 129.969 27.4062C130.052 26.4479 130.125 25.6458 130.188 25C130.25 24.3542 130.302 23.7396 130.344 23.1562C130.406 22.5521 130.458 21.9167 130.5 21.25C130.542 20.5625 130.583 19.7083 130.625 18.6875C130.688 18 130.76 17.5312 130.844 17.2812C130.948 17.0104 131.188 16.8333 131.562 16.75C133.458 16.375 135.396 16 137.375 15.625C139.354 15.2292 141.292 14.7292 143.188 14.125C143.354 14.125 143.448 14.1562 143.469 14.2188C143.51 14.2604 143.531 14.3333 143.531 14.4375L140.594 45.125ZM146.938 33.75C146.938 31.0208 147.438 28.4688 148.438 26.0938C149.458 23.6979 150.854 21.6146 152.625 19.8438C154.417 18.0729 156.521 16.6771 158.938 15.6562C161.375 14.6354 164.021 14.125 166.875 14.125C168.812 14.125 170.469 14.2812 171.844 14.5938C173.219 14.9062 174.344 15.2604 175.219 15.6562C176.094 16.0312 176.729 16.3854 177.125 16.7188C177.542 17.0312 177.75 17.1979 177.75 17.2188C177.75 17.3438 177.698 17.6979 177.594 18.2812C177.51 18.8438 177.406 19.5104 177.281 20.2812C177.177 21.0312 177.073 21.8125 176.969 22.625C176.885 23.4167 176.844 24.1042 176.844 24.6875C176.844 24.7917 176.812 24.9062 176.75 25.0312C176.688 25.1562 176.521 25.2188 176.25 25.2188C176 25.2188 175.635 25.1354 175.156 24.9688C174.677 24.7812 174.083 24.5833 173.375 24.375C172.688 24.1667 171.885 23.9792 170.969 23.8125C170.073 23.625 169.073 23.5312 167.969 23.5312C166.594 23.5312 165.354 23.7812 164.25 24.2812C163.146 24.7604 162.198 25.4375 161.406 26.3125C160.615 27.1667 160 28.1875 159.562 29.375C159.146 30.5625 158.938 31.8438 158.938 33.2188C158.938 34.6562 159.156 35.8854 159.594 36.9062C160.052 37.9062 160.656 38.7292 161.406 39.375C162.156 40 163.021 40.4583 164 40.75C164.979 41.0417 166.01 41.1875 167.094 41.1875C168.344 41.1875 169.604 41.0208 170.875 40.6875C172.146 40.3333 173.344 39.8438 174.469 39.2188C174.51 39.1979 174.594 39.1875 174.719 39.1875C174.823 39.1875 174.896 39.2396 174.938 39.3438C175 39.4479 175.031 39.6458 175.031 39.9375C175.031 40.6042 175.031 41.4167 175.031 42.375C175.031 43.3125 175.021 44.2188 175 45.0938C175 45.9479 174.99 46.6771 174.969 47.2812C174.948 47.8854 174.927 48.1875 174.906 48.1875C174.156 48.6875 173.344 49.0938 172.469 49.4062C171.594 49.7188 170.688 49.9688 169.75 50.1562C168.833 50.3438 167.906 50.4688 166.969 50.5312C166.031 50.5938 165.125 50.625 164.25 50.625C161.812 50.625 159.542 50.2188 157.438 49.4062C155.333 48.5938 153.5 47.4479 151.938 45.9688C150.396 44.4896 149.177 42.7188 148.281 40.6562C147.385 38.5729 146.938 36.2708 146.938 33.75ZM212.031 42.7188C212.01 42.8021 212 42.8854 212 42.9688C212 43.0312 212 43.0938 212 43.1562C212 43.6771 212.083 44.1146 212.25 44.4688C212.417 44.8021 212.594 45.0833 212.781 45.3125C212.99 45.5208 213.177 45.6979 213.344 45.8438C213.51 45.9688 213.594 46.0833 213.594 46.1875C213.594 46.4792 213.281 46.75 212.656 47L204.25 50.5938C204.229 50.6146 204.156 50.625 204.031 50.625C203.865 50.625 203.698 50.4792 203.531 50.1875C203.365 49.8958 203.198 49.5208 203.031 49.0625C202.885 48.625 202.74 48.1562 202.594 47.6562C202.469 47.1354 202.354 46.6562 202.25 46.2188C200.938 47.7396 199.521 48.8542 198 49.5625C196.479 50.2708 194.969 50.625 193.469 50.625C191.719 50.625 190.01 50.2396 188.344 49.4688C186.677 48.6979 185.198 47.6042 183.906 46.1875C182.615 44.75 181.573 43.0208 180.781 41C180.01 38.9792 179.625 36.7083 179.625 34.1875C179.625 31.2083 180.052 28.4896 180.906 26.0312C181.781 23.5729 182.958 21.4583 184.438 19.6875C185.917 17.9167 187.635 16.5521 189.594 15.5938C191.573 14.6146 193.667 14.125 195.875 14.125C197.438 14.125 198.917 14.4479 200.312 15.0938C201.708 15.7188 203.031 16.5312 204.281 17.5312C204.406 16.9062 204.479 16.4062 204.5 16.0312C204.521 15.6562 204.562 15.3646 204.625 15.1562C204.708 14.9479 204.854 14.8125 205.062 14.75C205.271 14.6667 205.615 14.6042 206.094 14.5625C207.594 14.3542 209.083 14.1667 210.562 14C212.062 13.8125 213.625 13.6771 215.25 13.5938L212.031 42.7188ZM202.688 30.9375C202.896 29.75 203.031 28.6354 203.094 27.5938C203.177 26.5312 203.24 25.5625 203.281 24.6875C202.948 24.4375 202.583 24.1771 202.188 23.9062C201.812 23.6354 201.396 23.3854 200.938 23.1562C200.5 22.9062 200.031 22.7083 199.531 22.5625C199.052 22.4167 198.542 22.3438 198 22.3438C196.875 22.3438 195.927 22.7083 195.156 23.4375C194.406 24.1667 193.792 25.0625 193.312 26.125C192.854 27.1875 192.521 28.3125 192.312 29.5C192.125 30.6875 192.031 31.7396 192.031 32.6562C192.031 35.9479 192.458 38.3646 193.312 39.9062C194.188 41.4271 195.396 42.1875 196.938 42.1875C197.562 42.1875 198.26 42.0104 199.031 41.6562C199.802 41.3021 200.583 40.8125 201.375 40.1875L202.688 30.9375Z" fill="#007DE3"/>
</svg>
